<svg xmlns="http://www.w3.org/2000/svg" width="64" height="64" viewBox="0 0 64 64">
  <defs>
    <linearGradient id="bg" x1="4" y1="2" x2="60" y2="62" gradientUnits="userSpaceOnUse">
      <stop offset="0" stop-color="#0b513d"/>
      <stop offset="1" stop-color="#003527"/>
    </linearGradient>
    <linearGradient id="letter" x1="20" y1="14" x2="44" y2="50" gradientUnits="userSpaceOnUse">
      <stop offset="0" stop-color="#b0f0d6"/>
      <stop offset="1" stop-color="#4edea3"/>
    </linearGradient>
  </defs>

  <rect width="64" height="64" rx="16" fill="url(#bg)"/>
  <rect x="1" y="1" width="62" height="62" rx="15" fill="none" stroke="#ffffff" stroke-opacity="0.06"/>

  <path
    d="M40.5 22.7c-1.6-2.4-4.4-3.7-7.7-3.7-4.9 0-8.1 2.4-8.1 6 0 3.9 3.1 5.1 7.6 6 4.2.8 5.6 1.4 5.6 3.1 0 1.8-1.9 2.9-4.7 2.9-3.2 0-5.5-1.2-7-3.6l-3.9 2.6c1.9 3.4 5.6 5.3 10.7 5.3 5.5 0 9.3-2.6 9.3-6.9 0-4.1-3.3-5.4-8.1-6.4-3.9-.8-5.2-1.3-5.2-2.8 0-1.5 1.6-2.5 4-2.5 2.6 0 4.5.9 5.9 2.8z"
    fill="url(#letter)"/>

  <circle cx="47" cy="18" r="3" fill="#6ffbbe"/>
</svg>
